Coordinates
version=1
nRows=5
nColumns=40
inDegrees=yes

Units are S.I. units (second, meters, Newtons, ...)
Angles are in degrees.

endheader
time	pelvis_tilt	pelvis_list	pelvis_rotation	pelvis_tx	pelvis_ty	pelvis_tz	hip_flexion_r	hip_adduction_r	hip_rotation_r	knee_angle_r	knee_angle_r_beta	ankle_angle_r	subtalar_angle_r	mtp_angle_r	hip_flexion_l	hip_adduction_l	hip_rotation_l	knee_angle_l	knee_angle_l_beta	ankle_angle_l	subtalar_angle_l	mtp_angle_l	lumbar_extension	lumbar_bending	lumbar_rotation	arm_flex_r	arm_add_r	arm_rot_r	elbow_flex_r	pro_sup_r	wrist_flex_r	wrist_dev_r	arm_flex_l	arm_add_l	arm_rot_l	elbow_flex_l	pro_sup_l	wrist_flex_l	wrist_dev_l
     24.24000000	     -5.58542360	     -5.80466872	      2.36767917	      1.03493829	      0.91338547	      0.45112296	     -0.79649151	     -0.58095943	    -15.13026110	     24.84525273	     24.84525273	     15.61701356	      1.53733198	    -12.58335358	     32.05864051	     -6.27599410	      0.62168047	     29.19831843	     29.19831843	      6.51657081	    -15.91479737	      8.64151572	     -9.68394453	      5.06280294	      5.94851076	     46.84222474	    -17.43610999	     -4.02780570	    118.29555836	     44.16867978	      0.00000000	      0.00000000	    -18.04364525	     -7.66877333	     16.88442049	     29.23456956	     43.82586676	      0.00000000	      0.00000000
     24.25171429	     -5.60538188	     -5.67625386	      2.26432850	      1.03489354	      0.91501693	      0.44784375	      0.32473737	     -1.48416548	    -14.94360510	     27.79055379	     27.79055379	     14.33983849	      0.85326185	    -13.61353763	     31.30225807	     -6.03506446	      0.30503374	     28.98299359	     28.98299359	      7.15119963	    -15.73035682	      8.41229903	     -9.63523204	      5.08243464	      5.59477245	     45.38187970	    -17.23778794	     -3.83824691	    118.07856113	     44.16948604	      0.00000000	      0.00000000	    -16.79365887	     -7.82157020	     16.62988527	     29.55724841	     43.90175319	      0.00000000	      0.00000000
     24.26342857	     -5.62160912	     -5.56618528	      2.15386917	      1.03469505	      0.91664227	      0.44465666	      1.60613961	     -2.38311217	    -14.67233755	     30.93207857	     30.93207857	     12.75775120	      0.00028574	    -14.74970303	     30.51199434	     -5.82422490	     -0.05068537	     28.68330072	     28.68330072	      7.66864040	    -15.55100163	      8.21339994	     -9.59528591	      5.13865073	      5.40747609	     43.61203864	    -17.23398204	     -3.79154298	    117.94837721	     44.17050060	      0.00000000	      0.00000000	    -15.39880332	     -8.05270005	     16.19726279	     30.00138047	     44.00324463	      0.00000000	      0.00000000
     24.27514286	     -5.72075969	     -5.59499757	      2.06518950	      1.03431254	      0.91809654	      0.44175008	      2.95524000	     -2.96317375	    -14.09906327	     33.65082349	     33.65082349	      9.11655399	     -2.58866289	    -20.58131737	     29.81016941	     -5.74656401	     -0.28159681	     28.30189359	     28.30189359	      8.00581505	    -15.31783234	      7.64431926	     -9.53512934	      5.25706876	      5.59638476	     41.35311502	    -17.63211481	     -4.54367312	    118.48462588	     44.27833732	      0.00000000	      0.00000000	    -13.68589149	     -7.50133899	     10.79337114	     29.91778978	     45.05560940	      0.00000000	      0.00000000
     24.28685714	     -5.75791897	     -5.50581821	      1.93691979	      1.03378433	      0.91951405	      0.43888167	      4.61715733	     -3.80688719	    -13.62931694	     37.21704988	     37.21704988	      7.32533826	     -3.69811385	    -20.63989347	     29.01404186	     -5.59458057	     -0.69649499	     27.89736016	     27.89736016	      8.43840708	    -14.95867614	      7.38732716	     -9.52662045	      5.28675041	      5.44734072	     39.32266538	    -17.69376825	     -4.54078827	    117.92971209	     44.29341739	      0.00000000	      0.00000000	    -12.22078959	     -7.77929304	     10.28767988	     30.67000761	     45.16064962	      0.00000000	      0.00000000
